<?xml version="1.0" encoding="utf-8" ?><svg xmlns="http://www.w3.org/2000/svg" xmlns:xlink="http://www.w3.org/1999/xlink" width="793" height="613" viewBox="0 0 793 613"><clipPath id="cl_3"><rect width="793" height="613"/></clipPath><g clip-path="url(#cl_3)"><path fill="#068882" transform="matrix(0.969438 0 0 0.86338 -206.49 -228.796)" d="M286.017 407.959C336.197 406.91 390.039 407.844 440.483 407.833L513.986 407.782C527.767 407.772 542.063 407.513 555.828 407.963C597.07 409.312 633.751 424.193 664.058 452.433C674.995 462.624 681.839 472.119 691.511 482.952C713.908 508.039 734.518 536.508 757.156 561.054C787.622 524.886 817.096 486.2 847.514 449.835C858.849 436.285 870.111 421.259 881.705 408.075C886.607 407.827 891.689 407.81 896.601 407.88C925.311 408.292 954.329 407.395 983.003 408.295L878.106 533.881C855.663 561.049 831.274 592.416 807.698 618.13C826.999 642.207 846.718 665.287 866.365 689.029L966.088 809.801C969.837 814.306 973.525 818.861 977.15 823.466L873.871 823.499C869.999 819.343 864.217 811.731 860.487 807.137L835.759 776.917L756.874 680.63C743.801 697.336 726.691 716.747 712.936 733.298L638.529 823.285C629.03 823.845 615.36 823.424 605.614 823.422L543.31 823.379C547.234 817.885 555.051 809.133 559.658 803.578L592.067 764.317L705.761 626.747C697.343 617.107 688.514 605.988 680.172 596.094L646.703 556.953C625.43 531.638 602.841 499.424 569.287 490.706C554.869 486.96 535.404 487.848 520.36 487.887L472.388 487.972L286.286 487.935C285.722 461.532 287.066 434.332 286.017 407.959Z"/><path fill="#068882" transform="matrix(0.969438 0 0 0.86338 -206.49 -228.796)" d="M607.225 554.477C610.592 557.001 623.305 571.99 626.771 576.056L662.589 618.312C657.741 624.71 653.286 630.234 647.553 635.987C629.598 653.735 607.31 666.476 582.905 672.941C558.018 679.35 515.341 677.409 488.421 677.409L371.895 677.365C372.525 693.419 372.04 712.601 372.021 728.866L372.091 823.464L348.708 823.456L290.741 823.48C290.295 799.461 290.697 774.353 290.711 750.242L290.584 597.503C310.259 596.706 335.189 597.427 355.455 597.441L478.926 597.468L517.837 597.514C561.712 597.641 585.132 598.824 607.225 554.477Z"/></g></svg>