<?xml version="1.0" encoding="utf-8" ?><svg xmlns="http://www.w3.org/2000/svg" xmlns:xlink="http://www.w3.org/1999/xlink" width="747" height="729" viewBox="0 0 747 729"><path fill="white" d="M0 0L747 0L747 729L0 729L0 0Z"/><path fill="#106362" d="M380.694 328.372C408.699 325.677 439.953 339.666 464.923 350.6L500.835 366.279C506.885 368.914 519.981 375.462 525.459 376.789C529.596 377.791 546.311 377.409 551.581 377.398L602.943 377.278C602.861 368.211 602.167 358.673 607.778 350.929C615.873 339.754 629.781 341.311 641.966 341.359L668.084 341.385L689.873 341.347C702.272 341.259 715.446 339.97 723.623 351.48C728.898 358.904 728.054 368.849 728.054 377.553L728.045 398.412L728.022 468.528L728.031 549.314L728.048 574.402C728.05 580.263 728.113 585.861 727.691 591.754C726.934 602.336 717.657 611.263 707.223 612.332C702.075 612.86 696.327 612.657 691.097 612.663L664.719 612.697L639.656 612.72C634.888 612.719 627.595 612.929 623.095 612.215C618.867 611.579 614.888 609.82 611.573 607.122C605.411 602.06 603.814 596.025 603.065 588.471C601.197 588.765 599.326 589.036 597.452 589.283C585.318 590.775 577.459 580.592 584.512 569.544C587.377 565.057 597.751 564.83 603.014 564.515C602.43 510.588 602.988 455.541 602.963 401.531C577.373 400.356 546.507 402.929 520.643 400.641C516.287 400.256 498.683 391.856 493.423 389.553L453.183 372.018C427.041 360.654 402.995 349.277 373.574 353.349C361.158 355.05 349.321 359.662 339.028 366.81C327.846 374.591 311.047 393.774 301.248 404.443C283.961 423.264 264.083 443.889 248.757 464.153C251.416 465.557 254.17 466.773 256.999 467.793C271.461 472.917 288.295 471.703 300.899 462.743C306.505 458.757 311.667 453.799 316.814 449.2C323.716 442.986 330.776 436.951 337.989 431.101C352.24 419.541 361.116 413.743 379.52 421.062C389.266 424.938 401.161 428.646 409.427 435.265C417.319 441.586 424.867 449.03 432.272 455.932C449.51 472.073 466.505 488.472 483.251 505.123C499.197 520.836 515.029 536.663 530.745 552.605C539.031 560.924 547.387 568.974 555.462 577.599C574.343 597.763 566.395 631.852 541.596 642.979C530.605 647.911 519.088 647.137 508.036 642.785C507.818 643.51 507.578 644.229 507.316 644.94C498.333 669.313 475.447 677.583 451.852 668.604C451.25 670.477 450.216 673.182 449.402 674.953C445.025 684.546 436.977 691.979 427.065 695.58C415.539 699.745 405.122 698.327 394.262 693.221C390.386 703.853 383.328 712.87 373.048 717.932C362.04 723.27 349.187 723.244 338.201 717.86C334.76 716.161 331.55 714.032 328.646 711.524C321.757 705.686 310.17 693.293 303.244 686.472L253.563 637.656C247.384 631.506 237.493 621.167 230.811 616.175C228.15 614.188 211.814 608.974 207.403 607.425C187.469 600.381 167.477 593.5 147.43 586.783C146.35 594.505 145.605 599.458 140.035 605.394C133.104 612.78 125.86 612.617 116.325 612.706C109.627 612.769 102.778 612.716 96.0227 612.715C83.1707 612.683 70.3186 612.721 57.467 612.827C47.835 612.864 36.7853 613.756 29.4731 606.211C20.3625 596.81 22.2296 586.757 22.0995 574.86C21.9959 559.807 21.9863 544.754 22.0708 529.701L22.0784 415.372L22.0204 386.2C21.8841 373.033 19.4517 355.552 31.0028 346.816C37.0604 342.234 42.3694 341.427 49.7727 341.381L97.6974 341.344C103.98 341.323 123.039 340.907 128.195 342.038C132.685 343.035 136.788 345.317 140.003 348.606C148.173 356.819 147.193 366.426 147.113 377.24C177.659 377.925 208.923 376.631 239.492 377.736C241.45 377.807 243.701 378.896 245.197 380.162C247.677 382.287 249.212 385.309 249.465 388.564C249.89 394.601 245.927 400.22 239.809 400.975C234.555 401.623 229.692 401.5 224.411 401.475L207.881 401.46C187.647 401.327 167.413 401.347 147.18 401.519C146.729 408.864 146.99 418.178 147.007 425.688L147.056 466.19C147.07 497.034 146.375 530.727 147.291 561.315C152.873 562.775 159.026 565.087 164.537 566.993L190.55 575.986L220.537 586.237C225.058 587.804 239.944 593.099 243.605 595.706C250.141 600.36 259.754 610.463 265.802 616.415L318.761 668.536C323.569 673.251 328.343 678 333.083 682.783C337.587 687.35 343.539 694.424 349.466 696.717C353.983 698.5 359.037 698.332 363.425 696.253C367.586 694.238 370.728 690.593 372.107 686.181C373.183 682.751 373.262 676.542 371.338 673.798C366.343 666.676 356.635 657.688 350.456 651.448L323.356 623.992C317.264 617.903 307.265 611.146 311.157 601.459C312.327 598.548 313.974 596.474 316.9 595.192C325.6 591.381 330.832 598.284 336.319 603.722C339.001 606.393 341.366 608.841 343.884 611.397L379.338 647.174C384.914 652.857 401.339 671.028 407.726 673.244C412.149 674.8 417.012 674.511 421.22 672.443C425.415 670.313 428.553 666.558 429.905 662.052C432.978 652.01 427.086 646.545 420.716 640.164C416.133 635.574 411.546 630.867 406.982 626.246L381.582 600.587C375.518 594.57 364.605 586.906 368.244 577.3C369.371 574.32 371.677 571.937 374.619 570.714C377.922 569.282 381.711 569.519 384.81 571.352C388.087 573.266 396.202 582.239 399.397 585.448L436.172 622.393C442.46 628.77 448.285 635.405 454.897 641.478C461.475 647.519 467.44 651.115 476.508 646.935C480.754 645.018 484.014 641.426 485.512 637.015C488.765 627.688 483.324 620.96 476.988 614.877C473.284 611.322 469.617 607.695 465.998 604.054L434.563 572.454C427.589 565.548 408.284 550.463 427.835 541.581C434.918 538.363 441.778 546.516 446.081 550.821C448.058 552.8 450.482 555.228 452.661 557.395L492.697 597.546C499.163 604.06 505.402 610.713 512.047 617.05C517.763 622.5 524.781 624.399 532.217 620.815C536.521 618.765 539.831 615.087 541.417 610.593C543.007 605.942 542.541 599.328 539.317 595.648C529.335 584.254 517.551 572.98 506.86 562.276C487.004 542.38 467.007 522.624 446.871 503.01C435.081 491.451 423.132 480.056 411.028 468.826C407.043 465.133 398.421 456.881 394.333 453.849C387.565 448.829 372.563 444.323 364.331 441.746C336.354 458.982 317.067 491.826 281.651 494.481C262.037 495.951 226.702 489.816 223.63 465.481C222.607 457.38 237.17 440.451 242.652 434.15C257.783 416.633 273.289 399.443 289.161 382.594C296.936 374.298 304.647 365.867 312.612 357.754C331.355 338.66 354.522 330.187 380.694 328.372Z"/><path fill="white" d="M45.6881 365.762C71.4706 365.673 97.5974 365.419 123.363 365.688C124.029 392.204 123.429 419.935 123.387 446.559L123.392 588.625L45.6078 588.627C45.3397 560.256 45.3266 531.884 45.5687 503.513L45.6881 365.762Z"/><path fill="white" d="M626.61 365.766L704.378 365.683C704.905 439.969 704.905 514.258 704.379 588.543C699.68 589.053 685.167 588.622 679.774 588.618L626.619 588.625C626.324 559.7 626.607 530.266 626.605 501.305L626.61 365.766Z"/><path fill="#199794" d="M187.688 34.7566C188.026 34.7388 188.363 34.7226 188.701 34.7082C202.679 34.1044 219.075 34.6348 233.306 34.6395L319.192 34.6427L377.461 34.6342C387.694 34.6297 398.643 34.2917 408.844 34.9416C422.994 35.8429 423.916 57.9315 408.554 58.5516C400.926 58.8596 393.308 58.7474 385.651 58.7424L341.785 58.7197L189.346 58.7393L189.332 146.785L189.325 279.966L189.325 322.785C189.326 329.784 189.411 336.824 189.317 343.82C189.237 349.788 185.43 354.557 179.442 355.609C176.34 356.152 173.149 355.452 170.56 353.659C164.172 349.151 165.754 337.352 165.82 330.239C165.878 323.918 165.902 317.597 165.892 311.276L165.912 237.736L165.889 118.474L165.867 80.3389C165.863 72.4169 165.835 64.6727 166.142 56.7529C166.635 44.0594 175.522 36.4719 187.688 34.7566Z"/><path fill="#199794" d="M458.371 34.7681C479.43 34.093 503.191 34.6449 524.445 34.6488L547.848 34.6126C556.259 34.5931 565.452 33.6181 572.764 38.24C577.221 41.0575 582.329 46.2429 583.111 51.6106C584.739 62.7866 584.026 74.337 584.001 85.5993L583.997 143.043L584.024 275.408L584.052 317.916C584.061 325.957 584.149 334.039 584.002 342.074C583.943 345.316 583.675 348.145 581.784 350.904C579.626 354.053 576.8 355.074 573.233 355.751C566.772 355.331 560.743 352.134 560.483 344.887C560.132 335.074 560.309 325.144 560.314 315.315L560.331 254.945L560.323 58.7427C525.874 57.8283 491.373 59.547 456.961 58.3714C445.571 57.9823 441.374 37.4783 458.371 34.7681Z"/><path fill="#199794" d="M369.882 282.384C377.447 282.125 385.437 282.354 393.054 282.362L435.964 282.371L481.596 282.365C489.939 282.364 498.309 282.305 506.65 282.448C508.981 282.488 512.441 282.502 514.555 283.471C520.84 286.353 523.5 294.224 520.037 300.255C517.928 303.892 514.202 305.355 510.241 306.258C502.949 306.643 493.797 306.374 486.292 306.375L442.195 306.373L397.258 306.369C391.734 306.372 368.235 307.206 364.408 304.624C355.67 298.728 356.923 285.164 369.882 282.384Z"/><path fill="#199794" d="M371.092 198.159C381.15 197.855 391.751 198.029 401.874 198.028L454.509 198.03L486.304 197.989C492.483 197.957 512.457 196.83 517.089 200.61C525.067 207.121 522.099 220.831 510.006 221.733C502.582 222.271 492.601 221.979 484.993 221.979L441.591 221.976L399.668 221.987C393.659 222.011 367.519 223.27 363.212 219.532C355.437 212.784 358.012 199.47 371.092 198.159Z"/><path fill="#199794" d="M373.767 113.933C381.459 113.816 390.024 114.049 397.812 114.054L456.868 114.063L489.285 114.037C496.877 113.995 503.627 113.355 511.351 114.489C520.953 115.898 524.576 125.841 518.884 133.506C516.129 137.214 511.949 137.68 507.623 138.22C476.247 137.843 444.868 137.746 413.49 137.93C405.644 137.934 397.79 137.937 389.951 137.964C382.712 137.99 375.424 138.801 368.277 137.325C366.354 136.928 364.918 136.559 363.297 135.402C357.869 131.527 357.532 123.098 361.767 118.223C364.861 114.678 369.405 114.255 373.767 113.933Z"/><path fill="#199794" d="M314.144 172.202C327.029 171.165 333.199 183.842 323.544 193.294C306.533 209.947 290.333 227.707 272.798 243.784C271.454 245.016 268 245.856 266.165 245.82C257.308 245.131 247.947 233.69 241.733 227.681C236.724 223.138 229.189 217.542 228.622 210.494C228.375 207.322 229.469 204.193 231.637 201.865C233.804 199.507 236.863 198.168 240.067 198.176C248.21 198.203 259.899 212.183 265.925 218.317C279.66 203.835 294.291 189.328 308.539 175.302C310.006 173.858 312.216 172.855 314.144 172.202Z"/><path fill="#199794" d="M314.009 256.508C314.536 256.435 315.065 256.376 315.595 256.329C326.885 255.395 332.692 267.976 323.984 276.851C309.08 292.042 294.115 307.083 279.051 322.122C268.381 332.775 263.713 332.688 252.489 322.128C249.009 318.86 245.327 315.268 241.862 311.906C237.316 307.426 228.87 301.57 228.603 295.044C228.204 285.258 238.837 278.277 247.186 284.905C254.107 290.4 259.893 296.262 265.978 302.453C277.228 290.334 289.105 278.858 300.717 267.092C304.892 262.862 308.296 258.554 314.009 256.508Z"/><path fill="#199794" d="M315.398 87.9581C318.567 87.7553 321.704 88.5262 324.18 90.5858C326.59 92.6023 328.058 95.5244 328.239 98.6606C328.642 106.326 317.176 115.65 311.992 120.793L295.069 137.786C288.095 144.805 281.219 152.266 273.809 158.701C266.891 164.711 260.445 160.858 254.819 155.818C249.926 151.433 245.435 146.941 240.757 142.461C234.119 136.544 222.936 127.924 231.372 118.124C233.45 115.686 236.459 114.235 239.661 114.127C245.724 113.965 250.273 118.753 254.284 122.65C258.17 126.427 262.022 130.24 265.88 134.045L292.806 106.834C298.735 100.836 307.403 90.2393 315.398 87.9581Z"/></svg>