<svg xmlns="http://www.w3.org/2000/svg" viewBox="48 104 400 296" role="img" aria-labelledby="logoTitle logoDesc">
    <title id="logoTitle">ProcureX PX logo</title>
    <desc id="logoDesc">A bold teal PX monogram for the ProcureX procurement system.</desc>
    <defs>
        <linearGradient id="pxGradient" x1="62" y1="126" x2="450" y2="386" gradientUnits="userSpaceOnUse">
            <stop offset="0" stop-color="#007c79"/>
            <stop offset="0.52" stop-color="#009a94"/>
            <stop offset="1" stop-color="#006a6d"/>
        </linearGradient>
    </defs>
    <g fill="url(#pxGradient)">
        <path d="M68 128h174c49 0 91 21 122 59l40 49-48 52-47-57c-18-22-42-33-72-33H68V128Z"/>
        <path d="M68 244h169c31 0 55-11 74-34l47 57c-30 36-70 55-120 55H124v62H68V244Z"/>
        <path d="M344 128h84l-98 124 104 132h-86l-62-79-63 79h-84l104-132-67-84h86l25 31 57-71Z"/>
    </g>
</svg>
